<?xml version="1.0" encoding="utf-8"?>
<!-- Generator: Adobe Illustrator 27.5.0, SVG Export Plug-In . SVG Version: 6.00 Build 0)  -->
<svg version="1.1" xmlns="http://www.w3.org/2000/svg" xmlns:xlink="http://www.w3.org/1999/xlink" x="0px" y="0px"
	 viewBox="0 0 500 500" width="600" height="600" style="enable-background:new 0 0 900 900;" xml:space="preserve">

<g id="Layer_4">
	<g>
		<path style="fill:#E6EABA;" d="M372.333,311c-1.891,1.246-5.131,3.444-5.333,6.667c6.667,1.333,42,12.667,54.667,32.667
			c-1.104,10.501-65.333,32-90.667,29.333c-0.526,1.401-2.566,6.835,0,10.667c47.333,7.333,132-27.333,138-54
			C428.333,339.667,399.667,307.667,372.333,311z"/>
		<path style="fill:#E6EABA;" d="M401.667,263.667c19.333,1.333,32,6.667,46,15.333c-1.333,19.333-10,34-20,46L413,318.333
			c8-8.667,21.333-20,27.333-34.667c-4.667-4.667-30-6-46-3.333L401.667,263.667z"/>
		<path style="fill:#E6EABA;" d="M311.667,229.667c50.667-26,70.667-26,98-27.333c1.333,27.333-10,86.667-68.667,134l-6-12
			c39.333-36,52.667-85.333,52-98.667c-29.333,2-48,11.333-70,25.333C318.333,253,311.667,229.667,311.667,229.667z"/>
		<path style="fill:#E6EABA;" d="M333,215l16.667-7.333C347,195,339,173,331.667,163C317,166.333,292.333,175.667,285,187.667
			c1.054-3.47,14,6,14,6c12.667-9.333,23.333-20,29.333-21.333C332.333,177.667,335,199.667,333,215z"/>
		<path style="fill:#E6EABA;" d="M127.667,311c1.891,1.246,5.131,3.444,5.333,6.667c-6.667,1.333-42,12.667-54.667,32.667
			c1.104,10.501,65.333,32,90.667,29.333c0.526,1.401,2.566,6.835,0,10.667c-47.333,7.333-132-27.333-138-54
			C71.667,339.667,100.333,307.667,127.667,311z"/>
		<path style="fill:#E6EABA;" d="M98.333,263.667c-19.333,1.333-32,6.667-46,15.333c1.333,19.333,10,34,20,46L87,318.333
			c-8-8.667-21.333-20-27.333-34.667c4.667-4.667,30-6,46-3.333L98.333,263.667z"/>
		<path style="fill:#E6EABA;" d="M188.333,229.667c-50.667-26-70.667-26-98-27.333c-1.333,27.333,10,86.667,68.667,134l6-12
			c-39.333-36-52.667-85.333-52-98.667c29.333,2,48,11.333,70,25.333C181.667,253,188.333,229.667,188.333,229.667z"/>
		<path style="fill:#E6EABA;" d="M167,215l-16.667-7.333C153,195,161,173,168.333,163C183,166.333,207.667,175.667,215,187.667
			c-1.054-3.47-14,6-14,6c-12.667-9.333-23.333-20-29.333-21.333C167.667,177.667,165,199.667,167,215z"/>
	</g>
	<path style="fill:#E6EABA;" d="M168.511,356.941c2.255,2.771,4.371,6.346,3.225,9.73c-0.349,1.029-0.985,2.157-0.477,3.117
		c0.176,0.333,0.47,0.585,0.757,0.828c0.171,0.144,0.344,0.287,0.516,0.431c-5.363,1.662-12.065,3.863-13.788,7.883
		c-2.495,5.82-3.745,15.695-6.15,22.698c-0.907,2.64-1.082,5.67,0.014,8.237c2.287,5.357,9.567,5.801,15.387,5.557
		c12.117-0.507,24.29-0.316,36.321,1.218c8.264,1.053,16.442,2.737,24.725,3.629c16.389,1.765,32.936,0.409,49.364-0.947
		c20.176-1.666,40.352-3.333,60.528-4.999c4.435-0.366,9.863-1.5,11.088-5.779c0.678-2.37-0.278-4.867-1.219-7.146
		c-2.465-5.972-4.929-11.945-7.394-17.917c-0.539-1.307-1.087-2.629-1.936-3.759c-2.555-3.401-7.169-4.344-11.361-5.065
		c-0.69-0.118-1.38-0.241-2.07-0.36c0.603-0.485,1.125-1.052,1.482-1.741c0.68-1.31,0.69-2.848,0.918-4.305
		c1.655-10.596,16.37-14.044,20.559-23.917c4.667-11-6.504-18.757-13-28c-3.746-5.331-9.601-10.396-10.248-16.879
		c-0.599-6.001,3.958-11.118,6.307-16.672c2.478-5.858,2.504-12.45,1.956-18.786c-1.409-16.296-7.132-31.484-13.015-46.747
		c-3.362-8.723-8.19-15.887-15.333-21.917c-5.931-5.007-12.202-9.389-19.613-11.137c0.92-1.431,2.002-2.81,3.608-4.26
		c4.401-3.973,8.002-8.752,11.088-13.811c5.82-9.541,6.625-16.375,7.125-23.375c0.236-3.298-0.005-6.468-0.193-9.77
		c-0.214-3.75-0.513-7.872-1.557-11.48c-1.273-4.401-3.246-8.364-5.196-12.508C289.875,85.5,268.093,74.967,245.25,76.375
		c-5.899,0.364-11.231,0.843-16.943,2.361c-6.52,1.732-12.49,4.528-17.932,8.514c-4.61,3.377-8.389,7.562-11.79,12.154
		C190,111,186.893,126.928,189.125,141.5c2.233,14.583,7.375,29.25,18.5,38.5c1.961,1.63,3.456,3.991,4.207,6.373
		c-0.922-0.341-1.912,0.183-2.488,1.002c-7.311,1.638-15.011,3.626-20.595,11.751c-7.083,5.875-8.312,13.633-12.083,22.208
		c-4.916,11.179-5.776,24.469-7.048,36.615c-0.778,7.427-3.883,18.501,0.715,24.385c6.968,8.917,23.849,5.846,34.845,3.176
		c1.408-0.342,2.874-0.713,4.286-0.389c2.86,0.656-2.439,5.301-2.798,8.213s4.737,4.17,3.051,6.572
		c-16.592,0.607-32.468,6.345-47.843,12.345c-2.983,1.164-5.274,2.823-7.5,5.125c-7.375,7.625-7.386,16.703-3.485,23.491"/>
	<g>
		<g>
			
				<path style="fill:none;stroke:#000000;stroke-width:1.8867;stroke-linecap:round;stroke-linejoin:round;stroke-miterlimit:10;" d="
				M209.379,258.184c-2.397,0.153-4.555-1.709-5.521-3.908c-0.967-2.199-1.001-4.679-1.019-7.081
				c-0.081-10.846-0.101-22.027,4.011-32.064c0.611-1.491,1.705-3.19,3.31-3.047c1.139,0.102,1.991,1.189,2.207,2.313
				s-0.058,2.277-0.33,3.388"/>
			
				<path style="fill:none;stroke:#000000;stroke-width:1.8867;stroke-linecap:round;stroke-linejoin:round;stroke-miterlimit:10;" d="
				M208.549,232.442c0.947-6.065,2.192-12.083,3.729-18.025c0.448-1.733,0.987-3.567,2.345-4.733
				c0.663-0.569,1.601-0.944,2.414-0.624c0.698,0.275,1.133,1.005,1.261,1.744c0.129,0.739,0.003,1.496-0.123,2.235
				c-0.165,0.97-0.33,1.94-0.495,2.91"/>
			
				<path style="fill:none;stroke:#000000;stroke-width:1.8867;stroke-linecap:round;stroke-linejoin:round;stroke-miterlimit:10;" d="
				M218.711,230.55c0.59-1.284,3.066-4.66,0.561-5.434c-0.32-0.099-0.753,0.207-0.61,0.51"/>
			
				<path style="fill:none;stroke:#000000;stroke-width:1.8867;stroke-linecap:round;stroke-linejoin:round;stroke-miterlimit:10;" d="
				M222,218c0.93-3.221,1.73-5.623,4.18-7.911c0.363-0.34,0.8-0.667,1.297-0.656c0.553,0.012,1.023,0.458,1.226,0.973
				c0.203,0.514,0.192,1.086,0.158,1.638c-0.238,3.835-0.979,7.338-3.002,10.605"/>
			
				<path style="fill:none;stroke:#000000;stroke-width:1.8867;stroke-linecap:round;stroke-linejoin:round;stroke-miterlimit:10;" d="
				M215.634,251.043c0.613-3.194,1.296-6.541,3.391-9.029c1.346-1.598,3.229-2.735,5.27-3.181"/>
			
				<path style="fill:none;stroke:#000000;stroke-width:1.8867;stroke-linecap:round;stroke-linejoin:round;stroke-miterlimit:10;" d="
				M214.521,229.817c-0.322-3.287,0.156-6.593,0.633-9.861c0.168-1.147,0.385-2.391,1.243-3.171c0.925-0.84,2.376-0.876,3.527-0.39
				s2.06,1.402,2.89,2.336c1.1,1.238,2.118,2.547,3.046,3.918c0.857,1.265,1.668,2.777,1.271,4.252
				c-0.055,0.206-0.14,0.415-0.305,0.551c-0.169,0.141-0.397,0.184-0.614,0.215c-1.894,0.276-3.861,0.039-5.635-0.681"/>
			
				<path style="fill:none;stroke:#000000;stroke-width:1.8867;stroke-linecap:round;stroke-linejoin:round;stroke-miterlimit:10;" d="
				M223.39,239.261c-0.07-2.491,0.195-4.992,0.785-7.413c0.297-1.219,0.728-2.496,1.72-3.264c0.992-0.768,2.695-0.715,3.275,0.397
				c0.242,0.464,0.25,1.011,0.252,1.534c0.017,4.406,0.034,8.813,0.051,13.219"/>
			
				<path style="fill:none;stroke:#000000;stroke-width:1.8867;stroke-linecap:round;stroke-linejoin:round;stroke-miterlimit:10;" d="
				M229.53,244.451c-3.688,7.862-7.61,14.214-12.854,21.136"/>
			
				<path style="fill:none;stroke:#000000;stroke-width:1.8867;stroke-linecap:round;stroke-linejoin:round;stroke-miterlimit:10;" d="
				M226.105,290.807c0.964-1.284,1.38-2.967,1.123-4.552c-0.198-1.225-1.153-2.579-2.369-2.332c-0.777,0.158-1.273,0.905-1.65,1.603
				c-1.302,2.414-2.229,5.029-2.74,7.723"/>
			
				<path style="fill:none;stroke:#000000;stroke-width:1.8867;stroke-linecap:round;stroke-linejoin:round;stroke-miterlimit:10;" d="
				M220.465,293.567c1.708,2.867,3.69,5.57,5.91,8.062"/>
			
				<path style="fill:none;stroke:#000000;stroke-width:1.8867;stroke-linecap:round;stroke-linejoin:round;stroke-miterlimit:10;" d="
				M226.212,291.155c0.562,1.243,1.364,2.377,2.35,3.319"/>
			
				<path style="fill:none;stroke:#000000;stroke-width:1.8867;stroke-linecap:round;stroke-linejoin:round;stroke-miterlimit:10;" d="
				M228.602,294.345c3.769,0.133,7.565-1.435,10.143-4.188c0.589-0.629,1.129-1.34,1.348-2.173c0.22-0.833,0.163-2.26-0.476-2.838
				c-2.612,0.731-5.279,1.263-7.971,1.589c-0.931,0.113-1.901,0.197-2.785-0.115c-1.206-0.426-2.039-1.506-2.802-2.532
				c-0.206-0.277-0.421-0.581-0.418-0.927c0.007-0.74,0.916-1.068,1.641-1.213c4.37-0.875,8.583-2.388,12.777-3.897"/>
			
				<path style="fill:none;stroke:#000000;stroke-width:1.8867;stroke-linecap:round;stroke-linejoin:round;stroke-miterlimit:10;" d="
				M226.41,301.741c2.441-0.331,4.92-0.178,7.381-0.284c7.757-0.334,15.375-3.336,21.274-8.385"/>
			
				<path style="fill:none;stroke:#000000;stroke-width:1.8867;stroke-linecap:round;stroke-linejoin:round;stroke-miterlimit:10;" d="
				M239.445,278.278c2.713-0.319,5.441-0.639,8.169-0.503c3.951,0.196,7.786,1.338,11.576,2.473"/>
			
				<path style="fill:none;stroke:#000000;stroke-width:1.8867;stroke-linecap:round;stroke-linejoin:round;stroke-miterlimit:10;" d="
				M255.457,292.712c10.737,3.869,22.058,6.109,33.459,6.621c9.852,0.443,20.187-0.538,28.558-5.753"/>
			
				<path style="fill:none;stroke:#000000;stroke-width:1.8867;stroke-linecap:round;stroke-linejoin:round;stroke-miterlimit:10;" d="
				M258.986,279.894c8.506,1.651,17.235-0.532,25.624-2.701c2.262-0.585,4.563-1.186,6.555-2.406
				c3.155-1.932,6.694-3.743,10.353-3.191c5.313,0.802,9.058,5.578,11.646,10.286c2.158,3.927,3.92,8.071,5.25,12.35"/>
			
				<path style="fill:none;stroke:#000000;stroke-width:1.8867;stroke-linecap:round;stroke-linejoin:round;stroke-miterlimit:10;" d="
				M224.799,300.043c-3.017-0.156-6.082-0.321-8.934-1.317c-1.572-0.549-3.072-1.348-4.713-1.626
				c-0.891-0.151-1.958-0.234-2.407-1.019c-0.423-0.738,0.017-1.735,0.736-2.19c0.719-0.455,1.619-0.497,2.47-0.471
				c3.261,0.099,6.494,1.008,9.329,2.622"/>
			
				<path style="fill:none;stroke:#000000;stroke-width:1.8867;stroke-linecap:round;stroke-linejoin:round;stroke-miterlimit:10;" d="
				M211.606,293.506c-0.161-0.235-0.323-0.469-0.484-0.704c0.379-0.859,1.138-1.543,2.032-1.83c0.646-0.208,1.339-0.213,2.017-0.175
				c1.925,0.109,3.83,0.564,5.596,1.335"/>
			
				<path style="fill:none;stroke:#000000;stroke-width:1.8867;stroke-linecap:round;stroke-linejoin:round;stroke-miterlimit:10;" d="
				M215.681,290.393c-0.216-0.354-0.063-0.843,0.245-1.12c0.309-0.277,0.731-0.386,1.14-0.453c1.338-0.219,2.732-0.078,3.999,0.404"
				/>
			
				<path style="fill:none;stroke:#000000;stroke-width:1.8867;stroke-linecap:round;stroke-linejoin:round;stroke-miterlimit:10;" d="
				M226.479,290.122c2.929,0.527,5.829,1.218,8.682,2.069"/>
			
				<path style="fill:none;stroke:#000000;stroke-width:1.8867;stroke-linecap:round;stroke-linejoin:round;stroke-miterlimit:10;" d="
				M248.633,349.4c-9.209-4.674-20.161-9.947-29.371-14.622c-9.45-4.797-19.124-9.665-29.624-11.104
				c-4.303-0.59-8.752-0.606-12.819-2.13c-0.989-0.37-1.979-0.853-2.644-1.673c-0.665-0.82-0.919-2.051-0.356-2.944
				c0.53-0.841,1.59-1.157,2.568-1.332c3.532-0.63,7.394-0.082,10.716,1.272c4.312-3.91,10.822-5.21,16.305-3.256
				c3.631,1.293,6.872,3.896,10.717,4.155c5.086,0.342,9.917-3.538,14.924-2.584c0.616,0.117,1.234,0.316,1.722,0.711
				c0.541,0.438,0.874,1.076,1.193,1.696c1.564,3.044,3.128,6.088,4.691,9.132"/>
			
				<path style="fill:none;stroke:#000000;stroke-width:1.8867;stroke-linecap:round;stroke-linejoin:round;stroke-miterlimit:10;" d="
				M211.667,186.333c-7.923,1.967-12.978,2.288-19.283,7.474C182.185,202.198,178.25,215,174.25,228
				c-3.039,9.876-3.25,20.5-4.75,30.5c-0.692,4.616-1.189,10.448-1.413,15.11c-0.321,6.683,2.645,13.097,6.265,18.724
				c0.938,1.457,2.057,2.983,3.724,3.453c1.339,0.377,2.765-0.009,4.079-0.463c15.231-5.263,25.616-19.055,35.051-32.119"/>
			
				<path style="fill:none;stroke:#000000;stroke-width:1.8867;stroke-linecap:round;stroke-linejoin:round;stroke-miterlimit:10;" d="
				M179.667,266.833c9.129-3.052,18.03-6.164,23.632-13.992"/>
			
				<path style="fill:none;stroke:#000000;stroke-width:1.8867;stroke-linecap:round;stroke-linejoin:round;stroke-miterlimit:10;" d="
				M269.333,186.667c-10.049,23.15-21.277,38.715-39.667,56"/>
			
				<path style="fill:none;stroke:#000000;stroke-width:1.8867;stroke-linecap:round;stroke-linejoin:round;stroke-miterlimit:10;" d="
				M286.496,185.776c1.355,12.891,2.709,25.783,4.064,38.674c1.822,17.339,3.469,35.748-4.192,51.41"/>
			
				<path style="fill:none;stroke:#000000;stroke-width:1.8867;stroke-linecap:round;stroke-linejoin:round;stroke-miterlimit:10;" d="
				M236.333,325.833c3.5,5.833,5.395,13.731,9.219,19.551c3.159,4.807,8.368,7.866,13.646,10.155
				c23.556,10.216,50.391,8.04,75.958,5.676c2.679-0.248,5.449-0.523,7.79-1.85c2.906-1.647,4.743-4.697,5.979-7.801
				c3.699-9.289,1.867-21.873-7.067-26.361"/>
			
				<path style="fill:none;stroke:#000000;stroke-width:1.8867;stroke-linecap:round;stroke-linejoin:round;stroke-miterlimit:10;" d="
				M235.833,325c29.779,5.88,58.952-4.911,89.287-3.85c6.091,0.213,12.516,1.009,17.355,4.715"/>
			
				<path style="fill:none;stroke:#000000;stroke-width:1.8867;stroke-linecap:round;stroke-linejoin:round;stroke-miterlimit:10;" d="
				M197.637,286.684c1.464,4.537,1.941,9.389,1.391,14.124"/>
			
				<path style="fill:none;stroke:#000000;stroke-width:1.8867;stroke-linecap:round;stroke-linejoin:round;stroke-miterlimit:10;" d="
				M261.963,325.864c1.5-4.452,3.606-9.51,8.121-10.806c3.942-1.131,7.954,1.146,11.96,2.026c3.943,0.866,8.18,0.329,11.782-1.494
				c2.241-1.134,4.525-2.803,6.994-2.347c1.327,0.245,2.457,1.082,3.7,1.607c2.529,1.069,5.392,0.809,8.118,1.131
				c2.726,0.322,5.73,1.595,6.523,4.223"/>
			
				<path style="fill:none;stroke:#000000;stroke-width:1.8867;stroke-linecap:round;stroke-linejoin:round;stroke-miterlimit:10;" d="
				M317.757,293.144c3.134,6.058,3.242,13.173,3.281,19.993c0.016,2.714,0.009,5.535-1.153,7.988"/>
			
				<path style="fill:none;stroke:#000000;stroke-width:1.8867;stroke-linecap:round;stroke-linejoin:round;stroke-miterlimit:10;" d="
				M288.766,299.421c-2.695,5.793-6.225,11.197-10.449,15.99"/>
			
				<path style="fill:none;stroke:#000000;stroke-width:1.8867;stroke-linecap:round;stroke-linejoin:round;stroke-miterlimit:10;" d="
				M198.792,300.979c-10.188,2.143-20.229,4.979-30.033,8.482c-4.894,1.749-9.814,3.712-13.864,6.969
				c-4.05,3.257-7.171,8.024-7.311,13.219c-0.092,3.399,1.071,6.697,2.343,9.85c4.129,10.23,10.108,20.439,19.845,25.626
				c6.509,3.467,14.161,4.346,21.502,3.646c7.342-0.7,14.453-2.895,21.428-5.29c10.209-3.506,20.996-8.071,26.519-17.345"/>
			
				<path style="fill:none;stroke:#000000;stroke-width:1.8867;stroke-linecap:round;stroke-linejoin:round;stroke-miterlimit:10;" d="
				M286.05,184.777c14.381,3.545,25.809,14.975,32.745,28.062c6.936,13.087,9.999,27.826,12.808,42.368
				c2.01,10.406,3.817,21.718-0.976,31.17c-1.733,3.418-4.309,6.531-4.941,10.311c-1.036,6.192,3.404,11.884,7.912,16.254
				c4.508,4.369,9.852,7.87,10.904,14.059"/>
			
				<path style="fill:none;stroke:#000000;stroke-width:1.8867;stroke-linecap:round;stroke-linejoin:round;stroke-miterlimit:10;" d="
				M271.758,193.757c-5.495,26.244-21.714,50.078-44.112,64.819c-2.655,1.747-5.493,3.408-8.645,3.815"/>
			
				<path style="fill:none;stroke:#000000;stroke-width:1.8867;stroke-linecap:round;stroke-linejoin:round;stroke-miterlimit:10;" d="
				M274.5,203c-3.978,29.871-14.189,47.077-25.737,74.911"/>
			
				<path style="fill:none;stroke:#000000;stroke-width:1.8867;stroke-linecap:round;stroke-linejoin:round;stroke-miterlimit:10;" d="
				M279.105,193.646c-2.698,29.523-8.695,57.63-18.271,85.688"/>
			
				<path style="fill:none;stroke:#000000;stroke-width:1.8867;stroke-linecap:round;stroke-linejoin:round;stroke-miterlimit:10;" d="
				M284.167,196.667c-1.265,16.3-2.84,29.28-4.605,45.534c-1.353,12.452-2.726,25.005-6.553,36.932"/>
			<path style="fill:none;stroke:#170100;stroke-width:2;stroke-miterlimit:10;" d="M211.667,186.333
				c1.057-3.294-2.681-5.245-5.296-7.51c-12.8-11.087-17.782-28.984-17.803-45.918c-0.01-8.324,1.046-16.761,4.27-24.436
				c5.127-12.204,15.616-21.786,27.784-26.996c12.169-5.209,25.886-6.246,38.969-4.232c6.963,1.072,13.899,3.03,19.856,6.791
				c4.449,2.81,8.237,6.551,11.712,10.502c2.94,3.343,5.69,6.865,8.029,10.653c7.843,12.701,10.775,28.349,8.063,43.028
				c-2.712,14.678-9.338,27.502-21.201,36.562"/>
		</g>
		<g>
			<path style="fill:#170100;" d="M350.333,336.667c2.824,0.808,0.867,7.125,0.667,8c-2.667,11.667-7.333,15.333-14.591,17.505
				c-2,0.598-3.611,2.224-4.866,3.893c-1.254,1.669-1.644,4.239-0.207,5.753c0.944,0.995,2.389,1.28,3.658,1.803
				c1.268,0.523,2.563,1.613,2.407,2.976c-6.516,1.452-13.317,1.124-19.864,2.43c-9.451,1.886-18.692,7.167-28.138,5.257
				c1.085-1.177,1.253-3.1,0.389-4.448c9.044-0.599,18.065-1.54,27.038-2.822c0.69-0.099,1.417-0.215,1.957-0.656
				c1.353-1.105-0.013-3.807-1.705-3.373c-1.242,0.927-2.484,1.853-3.726,2.78c0.344-1.223,0.689-2.447,1.033-3.67
				c-1.754,2.422-4.211,4.327-6.994,5.42c1.916-1.773,3.19-4.225,3.54-6.812c-1.94,2.292-3.88,4.585-5.821,6.877
				c1.56-2.463,3.184-5.173,2.89-8.073c-1.098,2.942-2.952,5.598-5.336,7.643c0.941-1.821,1.882-3.643,2.823-5.464
				c0.585-1.133,0.798-3.048-0.468-3.191c-0.984-0.111-1.485,1.116-1.763,2.067c-0.818,2.803-2.52,5.341-4.803,7.162
				c1.763-2.853,3.127-5.953,4.04-9.18c-0.579-0.584-1.639-0.275-2.148,0.371c-0.509,0.646-0.647,1.497-0.874,2.287
				c-0.658,2.288-2.228,4.299-4.288,5.492c1.395-2.292,2.55-4.731,3.438-7.263c0.133-0.378,0.259-0.791,0.129-1.17
				c-0.222-0.646-1.031-0.831-1.71-0.909c-22.71-2.594-45.826,2.975-68.466-0.171c-1.367-0.19-2.865-0.489-3.706-1.583
				c-0.841-1.094-0.3-3.161,1.079-3.143c0.736,0.01,1.325,0.576,1.885,1.053c2.775,2.368,6.759,3.234,10.267,2.234
				c-1.239-0.728-2.477-1.456-3.716-2.184c2.701-0.461,5.294,1.034,7.761,2.227s5.538,2.086,7.822,0.573
				c-0.629-1.12-1.679-1.998-2.893-2.419c0.884-0.959,2.457-0.891,3.639-0.341c1.182,0.551,2.148,1.479,3.286,2.115
				c2.122,1.186,4.83,1.251,7.007,0.17c-0.618-1.293-1.237-2.586-1.855-3.879c2.475,1.038,4.95,2.076,7.425,3.114
				c1.507,0.632,3.131,1.277,4.731,0.942c1.6-0.335,2.987-2.117,2.284-3.592c3.043,2.016,6.755,4.114,10.135,2.735
				c1.445-0.59,2.634-1.772,4.156-2.114c1.318-0.296,2.68,0.083,3.994,0.397c9.799,2.34,19.652-0.953,29.337-3.73
				C339,358.667,349.981,336.566,350.333,336.667z"/>
			<path style="fill:#170100;" d="M218.655,365.488c0.903,0.154,1.882,0.307,2.52,0.964c0.637,0.657,0.583,2.009-0.296,2.266
				c-7.198-2.913-15.371-3.351-22.84-1.225c2.151,1.928,3.54,4.685,3.807,7.562c-1.553-2.048-1.765-5.434-4.099-6.509
				c-1.913-0.881-4.756-1.308-6.246,0.786c1.633,1.691,2.289,2.552,2.712,4.864c-1.493-2.704-3.737-4.988-6.413-6.528
				c0.527,2.316,1.373,4.559,2.506,6.647c-1.892-1.773-3.785-3.545-5.677-5.318c0.504,2.232,1.343,4.388,2.481,6.372
				c-1.659-1.568-3.343-3.11-5.051-4.624c0.577,1.65,1.154,3.3,1.731,4.95c-0.719-0.845-1.439-1.691-2.158-2.536
				c-1.066,0.806-0.726,2.624,0.313,3.466s2.462,0.978,3.795,1.08c7.225,0.554,14.485,1.108,21.71,0.556
				c11.794-0.902,23.528-4.742,35.233-3.036c3.063,0.447,7.089,0.798,8.354-2.027c0.654-1.461,1.104-3.931,2.604-3.373
				c-0.314,2.588-0.628,5.176-0.941,7.764c2.058-1.882,3.568-4.357,4.299-7.048c0.391,2.246-0.041,4.626-1.194,6.593
				c2.85-1.317,4.982-4.084,5.529-7.176c0.619,2.189,0.547,4.568-0.203,6.715c1.957-1.763,3.438-4.048,4.247-6.555
				c0.351,2.33,0.01,4.76-0.967,6.904c2.532-1.088,4.37-3.641,4.599-6.388c0.652,1.896,0.725,3.986,0.207,5.923
				c1.71-1.977,3.155-4.184,4.282-6.543c0.51,2.235,0.157,4.655-0.97,6.651c2.253-1.919,4.197-4.199,5.735-6.726
				c-0.208,2.202-0.862,4.361-1.911,6.308c1.896-2.41,3.792-4.819,5.689-7.229c-0.236,2.701-1.228,5.333-2.835,7.517
				c2.587-0.007,4.998-2.148,5.312-4.716c0.785,1.367,0.593,3.226-0.455,4.403c2.641,0.364,5.283,0.729,7.924,1.093
				c-0.959,1.496-3.061,1.614-4.837,1.575c-26.703-0.579-53.434,0.205-80.057,2.348c-1.538,0.124-3.608,0.942-3.212,2.434
				c3.493,0.513,6.987,1.027,10.48,1.54c1.955,0.287,4.584,0.167,5.105-1.739c0.245,1.286,1.306,2.968,2.406,2.258
				c0.387-0.25,0.557-0.729,0.886-1.052c1.259-1.238,3.183,0.537,4.015,2.094c0.708-0.846,1.417-1.693,2.126-2.539
				c0.102,0.775,0.204,1.551,0.307,2.326c0.606-0.684,1.211-1.368,1.817-2.051c-0.15,1.359,0.851,2.75,2.187,3.04
				s2.824-0.559,3.252-1.857c0.478,0.734,0.957,1.469,1.435,2.203c0.96-0.514,1.639-1.517,1.76-2.599
				c0.681,0.661,1.362,1.322,2.043,1.984c0.726-0.714,1.452-1.428,2.177-2.142c0.502,0.812,1.076,1.683,1.983,1.982
				s2.144-0.409,1.948-1.344c0.557,0.307,1.115,0.614,1.672,0.921c2.51,0.016,5.02,0.032,7.53,0.048
				c0.578-0.549,1.155-1.098,1.733-1.647c-0.122,1.22,1.516,1.893,2.699,1.571c1.183-0.322,2.165-1.192,3.358-1.479
				c1.192-0.287,2.806,0.504,2.576,1.708c-0.069-1.582,2.316-1.648,3.846-1.241c1.53,0.408,3.976-0.301,3.35-1.755
				c0.815,0.643,1.63,1.285,2.445,1.928c0.897-1.647,3.481-2.01,4.797-0.674c1.362-1.165,3.304-1.279,5.095-1.336
				c6.814-0.22,13.629-0.44,20.444-0.659c2.1-0.068,4.843-0.72,4.967-2.817c0.385-0.537,1.267-0.073,1.556,0.521
				c0.289,0.594,0.402,1.349,0.972,1.684c1.265,0.744,2.216-1.372,2.183-2.84c0.564,1.177,1.485,2.18,2.61,2.84
				c0.556-0.884,1.112-1.769,1.668-2.654c1.146,0.556,2.052,1.588,2.455,2.796c0.881-0.411,1.414-1.302,1.984-2.09
				c0.57-0.788,1.347-1.574,2.319-1.582c0.972-0.008,1.833,1.292,1.135,1.969c0.857-0.684,1.714-1.368,2.571-2.052
				c0.695,0.339,1.228,0.993,1.42,1.742c0.634-0.585,1.267-1.171,1.901-1.756c0.291,0.68,0.78,1.273,1.393,1.688
				c1.096-0.37,1.454-2.032,0.608-2.821c1.289-0.985,3.023,1.225,2.289,2.672c-0.734,1.446-2.539,1.916-4.138,2.194
				c-15.27,2.66-30.909,1.906-46.365,3.063c-8.81,0.66-17.562,1.941-26.366,2.673c-35.218,2.925-70.505-2.988-105.35-8.879
				c4.836-3.655,7.646-9.835,7.223-15.882c-0.044-0.63-0.113-1.302,0.188-1.858c0.846-1.565,3.204-0.641,4.712,0.303
				c3.951,2.474,8.591,3.836,13.252,3.891c4.482,0.053,8.882-1.069,13.304-1.801c5.566-0.912,11.166-1.163,16.796-0.929
				c-0.06,0.173-0.219,0.132-0.288,0.388C214.053,364.76,216.638,365.144,218.655,365.488z"/>
			<path style="fill:#170100;" d="M150.625,410.906c-0.237,1.265-0.447,2.669,0.234,3.761c0.535,0.858,1.509,1.326,2.449,1.7
				c7.098,2.821,14.962,2.698,22.596,2.93c17.208,0.523,34.294,3.047,51.48,4.068c26.353,1.565,52.773-0.413,79.098-2.389
				c10.041-0.754,20.081-1.507,30.122-2.261c3.138-0.236,6.341-0.486,9.238-1.716c2.897-1.229,5.485-3.633,6.08-6.723
				c0.156-0.812,0.158-1.704-0.28-2.405c-0.993-1.588-3.359-1.235-5.167-0.745c-9.297,2.522-18.94,3.447-28.529,4.363
				c-9.365,0.894-18.731,1.788-28.096,2.683c-15.824,1.511-31.69,3.024-47.583,2.7c-6.812-0.139-13.617-0.615-20.381-1.426
				c-10.88-1.305-21.661-3.477-32.595-4.203c-11.454-0.76-23.26,0.029-34.101-3.748c-1.12-0.39-2.297-0.885-2.943-1.88
				c-0.647-0.995-0.425-2.618,0.694-3.012c4.955,3.932,11.58,4.857,17.858,5.629c38.154,4.693,76.827,8.953,114.929,3.858
				c9.534-1.275,19.022-3.134,28.636-3.409c5.327-0.152,10.664,0.185,15.983-0.133c6.829-0.407,13.592-1.898,19.959-4.4
				c-2.279-7.75-5.439-15.24-9.401-22.28c-13.012,5.974-28.113,3.39-42.406,4.216c-8.81,0.509-17.481,2.357-26.225,3.55
				c-34.039,4.643-68.559-0.684-102.499-6.001c-2.862-0.448-5.75-0.903-8.454-1.942c-3.244-1.246-3.785-2.544-4.761,1.343
				c-0.763,3.037-1.429,6.102-2.107,9.159C153.077,398.41,151.8,404.648,150.625,410.906z"/>
			<path style="fill:#170100;" d="M209.948,176.6c-2.868-1.695-5.042-4.347-6.908-7.107c-9.651-14.278-12.261-33.083-6.865-49.45
				c-0.911,10.011-1.089,20.216,1.224,29.999c2.312,9.783,7.315,19.183,15.271,25.327c1.595,1.232,4.039,2.733,4.188,4.907
				C214.772,180.108,211.797,177.693,209.948,176.6z"/>
			<path style="fill:#170100;" d="M259.74,147.757c-2.233-0.193-4.761,0.309-6.045,2.146c-0.471,0.674-0.668,1.736-0.004,2.222
				c0.177,0.13,0.391,0.196,0.602,0.256c2.828,0.803,5.99,0.768,8.577-0.627c0.847-0.456,1.7-1.071,2.66-1
				c-0.271,3.444-3.675,6.099-7.126,6.249c-3.451,0.15-6.741-1.767-9.018-4.364c-1.092-1.246-2.029-3.029-1.254-4.493
				c0.492-0.929,1.524-1.413,2.486-1.835c1.834-0.803,3.744-1.622,5.745-1.569c0.902,0.024,1.788,0.226,2.667,0.427
				c1.549,0.354,3.099,0.708,4.648,1.063c1.214,0.278,2.182,1.459,0.794,2.334C263.532,149.158,260.799,147.849,259.74,147.757z"/>
			<path style="fill:#170100;" d="M244.024,150.481c-0.236-0.263-0.655-0.341-0.97-0.18c-1.149,1.737-0.789,4.026-0.385,6.069
				c0.223,1.128,0.446,2.255,0.669,3.383c0.187-4.119,2.417-12.152-2.558-14.287c-4.35-1.865-9.148-2.673-13.869-2.335
				c-1.176,0.084-2.487,0.318-3.168,1.28c-0.544,0.768-0.527,1.785-0.489,2.725c0.042,1.038,0.085,2.077,0.127,3.115
				c0.024,0.59,0.052,1.195,0.287,1.736c0.905,2.08,3.975,1.893,5.756,3.297c0.85,0.67,1.418,1.722,2.421,2.129
				c1.208,0.491,2.577-0.145,3.618-0.931c1.04-0.786,2.007-1.766,3.269-2.093c0.695-0.18,1.435-0.146,2.122-0.355
				c0.687-0.209,1.356-0.791,1.304-1.507c-0.082-1.122-1.63-1.372-2.738-1.173c-0.958,0.172-1.898,0.433-2.839,0.683
				c-2.305,0.61-4.802,1.141-7.023,0.275c-0.707-0.276-1.411-0.751-1.623-1.48c-0.261-0.899,0.352-1.868,1.173-2.318
				c0.821-0.45,1.795-0.5,2.731-0.519c1.581-0.032,3.164-0.005,4.743,0.082c0.932,0.051,1.979,0.182,2.548,0.922
				c1.015,1.015,2.441,3.133,3.74,2.247c0.613-0.419,0.9-0.936,0.959-1.49"/>
			<path style="fill:#170100;" d="M248.95,148.006c-0.156-1.394-1.829-2.385-3.126-1.852c-0.577,0.169-0.327,1.095,0.183,1.412
				c0.51,0.318,1.201,0.463,1.45,1.009c0.126,0.276,0.109,0.611,0.279,0.862c0.338,0.499,1.216,0.266,1.451-0.289
				s-0.011-1.204-0.38-1.682"/>
			<path style="fill:#170100;" d="M244.953,164.029c0.509-0.123,1.045-0.246,1.55-0.107c0.635,0.175,1.098,0.73,1.711,0.973
				c0.936,0.371,1.973-0.051,2.969-0.201c0.995-0.15,2.299,0.241,2.377,1.245c0.052,0.667-0.514,1.244-1.138,1.484
				c-0.624,0.24-1.311,0.238-1.972,0.337c-1.273,0.191-2.485,0.776-3.427,1.654c0.54,0.703,1.606,0.668,2.466,0.455
				c0.86-0.213,1.786-0.532,2.601-0.182c0.456,0.196,0.83,0.589,1.32,0.668c0.973,0.157,2.076-0.956,2.817-0.307
				c0.396,0.346,0.342,0.965,0.255,1.484c-0.108,0.64-0.288,1.379-0.882,1.642c-0.859,0.381-1.684-0.522-2.472-1.034
				c-1.598-1.039-3.688-0.498-5.571-0.207c-2.151,0.331-4.341,0.281-6.518,0.23c-0.167,0.778,0.377,1.572,1.082,1.941
				c0.705,0.369,1.533,0.404,2.329,0.4c3.064-0.015,6.126-0.507,9.041-1.451c0.156,0.941-0.386,1.889-1.134,2.482
				c-0.748,0.592-1.677,0.899-2.584,1.194c-1.389,0.452-2.801,0.909-4.261,0.966c-1.46,0.057-3.002-0.336-4.032-1.372
				c-1.119-1.125-1.605-2.939-3.064-3.561c-0.867-0.37-1.869-0.209-2.78-0.449c-0.911-0.24-1.773-1.281-1.251-2.065
				c0.283-0.425,0.84-0.557,1.347-0.622c1.546-0.197,3.13-0.084,4.632,0.33c0.777,0.214,1.561,0.511,2.363,0.426
				c0.801-0.085,1.621-0.719,1.567-1.523c-0.942-0.633-2.213-0.122-3.337-0.274c-1.452-0.196-3.271-2.247-2.053-3.63
				C239.442,164.341,243.984,164.263,244.953,164.029z"/>
			<path style="fill:#170100;" d="M276.19,181.939c-1.616,2.242-5.554,2.901-6.979,0.533c-0.492-0.817-0.587-1.806-0.655-2.758
				c-0.25-3.474-0.029-7.555,2.812-9.57c0.789-4.089,0.749-8.336-0.115-12.41c-1.472,4.228-3.209,8.793-7.048,11.096
				c-1.582,0.949-3.457,1.463-4.77,2.758c-1.299,1.282-1.848,3.14-2.956,4.59c-2.787,3.649-8.125,3.811-12.714,3.64
				c-1.437-0.053-2.921-0.118-4.218-0.738c-1.538-0.734-2.618-2.15-3.638-3.515c-1.703-2.279-3.406-4.559-5.109-6.838
				c-2.356-3.153-4.762-6.407-5.787-10.208c-1.126-4.178-0.477-8.596-0.514-12.923c-0.006-0.721-0.036-1.461-0.324-2.122
				c-0.179-0.411-0.456-0.79-0.515-1.235c-0.053-0.401,0.08-0.801,0.212-1.184c1.225-3.564,2.728-7.461,6.079-9.185
				c1.027-0.528,2.432-1.367,1.949-2.416c-1.437,1.117-3.429,1.48-5.168,0.943c-0.542,1.258-1.53,2.318-2.746,2.948
				c-0.869-1.01-1.431-2.281-1.591-3.604c-0.356,0.599-1.327,0.183-1.669-0.424c-0.342-0.607-0.49-1.393-1.094-1.739
				c-1.091-0.626-2.233,0.772-2.61,1.972c-0.377,1.2-0.982,2.737-2.238,2.667c-0.46,2.776-0.465,5.627-0.016,8.405
				c0.091,0.56,0.196,1.158-0.033,1.678c-0.276,0.628-0.966,0.974-1.33,1.556c-0.493,0.789-0.285,1.809-0.061,2.712
				c0.741,2.986,1.482,5.971,2.223,8.957c0.248,0.999,0.528,2.055,1.27,2.769c0.553,0.533,1.297,0.807,1.975,1.169
				c2.991,1.596,4.744,5.229,4.132,8.564c-0.606-1.146-2.468-0.958-3.282,0.051c-0.814,1.009-0.855,2.421-0.792,3.715
				c0.129,2.659,0.54,5.304,1.224,7.876c0.257,0.967,0.596,1.989,1.396,2.59c1.285,0.965,3.502,0.66,4.192,2.111
				c0.775,1.629-1.736,3.182-3.37,2.416c-1.634-0.766-2.394-2.612-3.202-4.225c-0.809-1.613-2.119-3.319-3.923-3.296
				c0.163,1.565,0.325,3.131,0.488,4.697c0.079,0.764,0.069,1.71-0.603,2.08c-0.512,0.282-1.14,0.064-1.721-0.002
				c-0.581-0.067-1.341,0.208-1.323,0.792c4.047,1.921,8.642,2.244,13.112,2.536c0.415,0.027,0.829,0.054,1.244,0.081
				c2.301,0.15,4.7,0.284,6.821-0.62c1.094-0.467,2.13-1.211,3.32-1.223c1.189-0.012,2.44,1.288,1.803,2.293
				c-1.391-0.818-2.947-1.353-4.546-1.565c3.996,3.526,9.926,4.156,15.098,2.873c5.172-1.283,9.76-4.223,14.166-7.22
				c0.486-0.33,1.083-0.676,1.625-0.45c0.475,0.198,0.678,0.744,0.902,1.208c1.573,3.246,6.368,3.904,9.351,1.876
				c2.983-2.028,4.261-5.889,4.185-9.497c-0.023-1.067-0.125-1.812-1.096-2.16C276.974,177.005,277.76,179.762,276.19,181.939z"/>
			<path style="fill:#170100;" d="M239.039,188.261c0.269-1.248-0.558-2.633-1.784-2.988c-1.226-0.355-2.665,0.374-3.104,1.573
				c-0.118,0.323-0.17,0.677-0.105,1.015c0.191,0.995,1.258,1.525,2.196,1.907c0.857,0.348,2.027,0.613,2.549-0.15
				c0.227-0.332,0.239-0.761,0.242-1.164c0.005-0.532,0.01-1.063,0.014-1.595"/>
			<path style="fill:#170100;" d="M278.172,150.536c0.36-0.616,0.733-1.332,0.508-2.009c-0.302-0.909-1.567-1.162-2.425-0.736
				c-0.858,0.426-1.395,1.291-1.887,2.113c0.173-1.444,0.4-3.005,1.429-4.032c1.03-1.027,3.146-1.009,3.649,0.356
				c-0.001-4.759,0.185-9.519,0.558-14.264c-1.208,0.157-1.729,1.559-2.394,2.579c-0.665,1.021-2.491,1.617-2.889,0.466
				c-0.238-0.688,0.336-1.415,0.261-2.14c-0.16-1.558-2.757-1.512-3.448-2.918c0.088,1.397-1.764,2.362-3.002,1.71
				c-1.238-0.653-1.629-2.378-1.078-3.664c-0.989,1.546-3.369,1.964-4.825,0.846c-0.529-0.406-0.937-0.971-1.526-1.284
				c-0.926-0.492-2.048-0.249-3.097-0.252c-1.049-0.003-2.311-0.506-2.402-1.551c-0.022,1.904-2.1,3.49-3.942,3.009
				c-1.842-0.481-2.879-2.882-1.966-4.553c-1.049,0.874-1.139,2.413-1.369,3.759c-0.23,1.346-0.983,2.901-2.348,2.962
				c-1.985-0.623-3.26-2.943-2.723-4.953c-1.846,0.539-1.897,3.786-3.802,4.055c-0.995,0.141-1.897-0.755-2.133-1.732
				c-0.236-0.977,0.018-1.998,0.271-2.97c-1.441-0.067-1.015,2.453-2.031,3.477c-0.725,0.731-2.061,0.4-2.701-0.406
				c-0.64-0.806-0.763-1.896-0.823-2.923c-1.86,1.361-1.513,4.744,0.584,5.7c0.766,0.349,1.631,0.394,2.472,0.415
				c2.879,0.071,5.758-0.079,8.633-0.228c0.993-0.052,1.986-0.103,2.979-0.155c3.543-0.184,7.087-0.369,10.632-0.492
				c2.325-0.081,4.796-0.099,6.786,1.105c1.589,0.961,2.654,2.58,3.563,4.199c4.095,7.288,4.474,14.457,5.941,22.259
				C275.185,155.729,276.662,153.12,278.172,150.536z"/>
			<path style="fill:#170100;" d="M226.835,120.753c-0.505,0.702-0.275,1.663-0.311,2.527c-0.07,1.673-1.357,3.22-2.989,3.594
				c-0.934-0.567-0.533-2.507-1.616-2.657c-0.314-0.044-0.618,0.118-0.877,0.3c-0.959,0.677-1.638,1.738-1.85,2.893
				c0.588,0.579,1.427-0.616,2.251-0.569c0.62,0.035,0.952,0.771,0.952,1.392c0,0.621-0.187,1.258-0.007,1.852
				c0.542-0.107,0.665-0.803,0.89-1.307c0.53-1.184,2.325-1.534,3.261-0.637c-0.036-1.045,0.12-2.376,1.121-2.679
				c1.074-0.325,1.888,0.401,2.83-0.428C228.356,123.616,227.924,123.331,226.835,120.753z"/>
			<path style="fill:#170100;" d="M272.531,111.214c5.389,4.471,8.913,11.002,10.186,17.887c1.273,6.885,0.369,14.088-2.091,20.643
				c-1.751,4.666-4.29,9.094-5.135,14.006c5.591-9.565,11.371-19.882,10.65-30.938c-0.664-10.177-6.9-19.315-14.701-25.883
				c-1.261-1.062-9.007-8.361-7.702-3.312C264.496,106.547,270.344,109.399,272.531,111.214z"/>
			<path style="fill:#170100;" d="M272.343,170.915c-1.924,2.726-2.562,6.321-1.692,9.542c0.216,0.8,0.617,1.673,1.409,1.917
				c1.04,0.319,2.033-0.64,2.536-1.605c0.876-1.681,1.117-3.609,1.345-5.491c0.192-1.591,0.427-3.818-1.218-4.553
				c-0.747,1.048-0.138,2.326-1.206,3.064C273.223,172.977,272.983,171.719,272.343,170.915z"/>
			<path style="fill:#170100;" d="M300.596,137.019c0.208,3.555,0.412,7.164-0.354,10.642c-0.646,2.93-1.959,5.664-3.294,8.35
				c-1.771,3.564-3.602,7.098-5.49,10.601c-1.64,3.042-3.375,6.126-5.981,8.397c-3.066,2.671-7.52,4.548-8.297,8.54
				c9.566-6.074,17.425-14.975,21.672-25.48c3.657-9.046,5.055-20.457,1.818-29.848
				C299.305,130.113,300.461,134.716,300.596,137.019z"/>
			<path style="fill:#170100;" d="M271.75,120.651c0.259-0.435,0.627-0.904,0.482-1.389c-0.516-0.118-0.833,0.535-1.266,0.839
				c-0.479,0.337-1.184,0.211-1.614-0.187c-0.429-0.398-0.614-1.006-0.626-1.591c-0.11,0.913-0.317,1.973-1.141,2.382
				c-0.817,0.406-1.816-0.079-2.443-0.742c-0.627-0.663-1.058-1.505-1.753-2.097c0.598,1.403-0.234,3.232-1.685,3.703
				c-1.451,0.471-3.199-0.521-3.538-2.008c-0.419,0.899-0.738,2.182,0.106,2.703c0.44,0.271,1.004,0.175,1.513,0.269
				c0.881,0.162,1.562,0.91,1.894,1.741c0.332,0.831,0.376,1.745,0.416,2.64c0.021-1.049,0.042-2.099,0.063-3.148
				c0.011-0.531,0.035-1.101,0.357-1.522c0.216-0.282,0.541-0.46,0.876-0.576c1.469-0.509,3.256,0.179,4.003,1.542
				c0.085-1.041,1.21-1.866,2.228-1.634c0.347,0.079,0.69,0.285,0.82,0.615c0.092,0.231,0.069,0.49,0.06,0.739
				c-0.042,1.19,0.32,2.468,1.418,2.903C272.132,124.012,270.634,122.526,271.75,120.651z"/>
			<path style="fill:#170100;" d="M271.905,130.818c-0.821-0.949-0.962-2.426-0.336-3.513c0.159-0.276,0.365-0.537,0.427-0.849
				c0.061-0.313-0.095-0.701-0.41-0.75c-0.303,1.005-1.195,1.807-2.226,2.001c-1.116,0.211-2.615-0.073-3.098,0.955
				c0.419,0.403,1.096,0.135,1.667,0.024c1.418-0.276,2.953,0.808,3.168,2.236c-0.861,1.005-0.307,2.835,0.967,3.193
				c1.274,0.358,2.701-0.916,2.489-2.222c-0.212-1.306-1.968-2.064-3.064-1.322"/>
			<path style="fill:#170100;" d="M274.903,119.517c1.927,4.633,3.298,9.497,4.076,14.454c0.594-0.882,0.755-1.982,0.811-3.044
				c0.302-5.734-2.331-12.502-7.204-15.809C273.514,116.506,274.262,117.976,274.903,119.517z"/>
			<path style="fill:#170100;" d="M215.152,121.643c0.124-0.799,0.57-1.837,1.36-1.665c0.387,0.084,0.637,0.451,0.842,0.79
				c0.967,1.604,1.829,3.27,2.579,4.986c-1.046,1.979-2.092,3.959-3.138,5.938c-0.542,1.026-1.094,2.081-1.245,3.232
				c-0.137,1.048,0.068,2.113-0.018,3.166c-0.095,1.166-0.485,2.393-1.131,3.3C212.253,135.639,214.239,127.515,215.152,121.643z"/>
			<path style="fill:#170100;" d="M211.758,133.547c0.018-2.689,0.036-5.378,0.054-8.067c-2.862,10.139-1.481,21.404,3.743,30.552
				c-0.564-0.988,0.089-4.588-0.084-5.89c-0.27-2.037-0.775-4.037-1.588-5.923C212.312,140.576,211.73,137.597,211.758,133.547z"/>
			<path style="fill:#170100;" d="M223.367,122.119c1.095-0.501,2.327,0.248,3.296,0.963c-0.491-1.782,1.444-3.649,3.26-3.308
				c1.286,0.242,2.36,1.849,1.549,2.876c-0.371,0.47-0.993,0.651-1.479,1.001c-0.486,0.35-0.822,1.104-0.396,1.524
				c0.814,0.029,1.593,0.541,1.942,1.277c0.315-0.7,0.63-1.4,0.946-2.099c0.544,0.448,1.106,0.907,1.778,1.119
				c0.672,0.212,1.49,0.121,1.957-0.406c0.177,0.418,0.354,0.836,0.531,1.254c0.811-0.581,1.689-1.186,2.687-1.205
				c0.997-0.018,2.066,0.854,1.847,1.828c0.258,0.209,0.651-0.001,0.842-0.272c0.191-0.271,0.306-0.613,0.582-0.797
				c0.816-0.545,1.95,0.803,2.797,0.308c-0.871-1.541-1.45-3.248-1.696-5.001c-0.543,1.476-2.135,2.601-3.678,2.294
				c-1.543-0.308-2.583-2.302-1.713-3.613c-0.49-0.141-0.985,0.249-1.235,0.693c-0.25,0.444-0.36,0.962-0.648,1.382
				c-0.864,1.261-2.992,0.965-3.93-0.243c-0.938-1.207-0.947-2.895-0.662-4.397c-0.454-0.315-0.829,0.472-1.239,0.843
				c-0.654,0.592-1.795-0.068-1.977-0.931s0.249-1.726,0.666-2.503c-0.566,0.166-1.104,0.428-1.583,0.773
				c-0.582-0.659-1.163-1.317-1.745-1.976c-0.498,0.906,0.65,1.782,1.2,2.658c0.644,1.026,0.375,2.523-0.585,3.261
				c-0.96,0.738-2.476,0.613-3.302-0.273c-0.437-0.469-0.822-1.174-1.462-1.129c0.549,1.766-0.07,3.835-1.498,5.009
				c0.405,0.804,0.819,1.542,1.464,2.108C222.062,124.125,222.282,122.615,223.367,122.119z"/>
			<path style="fill:#170100;" d="M238.012,117.978c0.126,1.315,1.486,2.27,2.808,2.281c1.321,0.011,2.549-0.722,3.497-1.642
				c0.908,1.975,3.838,2.634,5.503,1.238c-0.727,1.074-0.371,2.725,0.734,3.403c-0.464,0.484-0.749,1.136-0.79,1.805
				c0.582-0.372,1.163-0.744,1.745-1.116c0.891,1.18,2.613,1.648,3.979,1.082c-0.109,0.47,0.009,0.988,0.311,1.364
				c1.792-1.939,2.456-4.852,1.681-7.376c-0.555,0.739-0.576,1.733-0.799,2.63c-0.223,0.897-0.87,1.864-1.793,1.819
				c-0.337-0.016-0.65-0.17-0.943-0.336c-0.958-0.543-1.887-1.377-1.99-2.474c-0.103-1.096,1.117-2.243,2.077-1.705
				c-0.875-1.037-1.65-2.158-2.31-3.343c0.359,1.053-0.247,2.257-1.175,2.871c-0.928,0.614-2.095,0.745-3.208,0.707
				c-1.046-0.036-2.413-0.642-2.166-1.66c0.118-0.485,0.578-1.06,0.196-1.382c-0.368-0.31-0.85,0.189-1.151,0.565
				c-0.738,0.924-2.024,1.374-3.177,1.111c-1.153-0.263-2.117-1.225-2.382-2.378c0.604,2.63-4.507,1.516-5.39,1.409
				C232.853,119.92,236.471,119.031,238.012,117.978z"/>
			<path style="fill:#170100;" d="M230.489,113.174c0.837,0.426,2.027,0.219,2.466-0.61c0.752,2.623,4.23,4.023,6.59,2.652
				c2.169,1.063,4.888,0.909,6.923-0.393c1.459,1.047,3.426,2.116,4.916,1.115c0.758-0.509,1.352-1.529,2.255-1.388
				c0.297,0.047,0.555,0.222,0.828,0.347c1.808,0.826,1.985-0.574,3.124-1.21c0.156,0.928,0.919,1.67,1.792,2.021
				c0.873,0.351,1.843,0.368,2.781,0.296c0.536-0.041,1.115-0.1,1.575,0.179c0.46,0.279,0.626,1.058,0.162,1.329
				c-0.218,0.127-0.49,0.099-0.74,0.066c-1.277-0.166-2.627-0.332-3.81,0.175s-2.065,1.958-1.487,3.109
				c-0.411-0.902-1.459-1.466-2.438-1.312c0.712-0.724,1.441-1.472,1.835-2.408c0.173-0.41,0.039-4.298,0.798-4.202
				c-2.508-0.317-4.59-2.679-4.59-5.207c-0.499,0.017-0.799,0.598-0.779,1.096c0.019,0.499,0.242,0.968,0.297,1.464
				c0.173,1.544-1.278,2.795-2.723,3.366c-0.477,0.188-0.991,0.339-1.497,0.26c-0.823-0.128-1.453-0.851-1.72-1.641
				c-0.266-0.79-0.237-1.644-0.204-2.477c-0.517,1.154-1.053,2.338-1.956,3.223s-2.27,1.416-3.458,0.984
				c-1.188-0.432-1.89-2.056-1.123-3.062c0.204-0.267,0.481-0.467,0.762-0.651c0.832-0.547,1.76-1.009,2.754-1.059
				c0.994-0.05,2.062,0.39,2.525,1.271c0.235-0.279-0.01-0.721-0.331-0.894c-0.321-0.172-0.708-0.207-1.01-0.411
				c-0.714-0.483-0.575-1.572-0.244-2.368c0.33-0.796,0.774-1.686,0.416-2.47c-1.081,0.565-1.662,1.742-2.363,2.74
				c-0.702,0.998-1.822,1.947-3.011,1.67c-1.179-0.275-1.896-1.661-3.098-1.807c0.394,1.146,1.204,2.116,1.574,3.269
				c0.37,1.153,0.073,2.706-1.075,3.091c-1.032,0.347-2.156-0.507-2.506-1.539c-0.35-1.031-0.142-2.159,0.07-3.227
				c-0.676,0.925-1.413,1.804-2.205,2.632c-0.157,0.164-0.345,0.339-0.573,0.332c-0.268-0.008-0.457-0.265-0.569-0.509
				c-0.515-1.133-0.243-2.5,0.395-3.568c0.608-1.019,1.529-1.861,2.413-2.633c-1.388,0.564-4.012,1.098-4.978,2.344
				C227.99,108.783,228.631,112.227,230.489,113.174z"/>
			<path style="fill:#170100;" d="M251.754,107.812c1.206,0.657,2.84,0.4,3.785-0.596c0.276-0.291,0.618-0.673,0.994-0.534
				c0.227,0.084,0.342,0.328,0.474,0.531c0.588,0.9,1.97,1.148,2.835,0.509c0.16-0.118,0.313-0.287,0.303-0.486
				c-0.022-0.414-0.606-0.453-1.021-0.456c-1.504-0.011-2.823-1.506-2.646-3c-0.282,2.387-5.08,1.428-6.242,1.756
				C250.344,106.49,250.884,107.338,251.754,107.812z"/>
			<path style="fill:#170100;" d="M265.369,104.315c-0.897-0.588-1.69-1.333-2.332-2.191c-0.904-1.209-1.512-2.673-1.533-4.182
				c0.9,0.984,1.799,1.968,2.699,2.952c0.513,0.561,1.042,1.15,1.254,1.879c0.212,0.73,0.002,1.643-0.672,1.994"/>
			<path style="fill:#170100;" d="M231.237,103.807c-0.194,0.564-0.395,1.142-0.778,1.599c-0.58,0.693-1.483,1.005-2.318,1.35
				c-4.373,1.806-7.91,5.253-10.585,9.156c-2.674,3.903-4.567,8.277-6.444,12.62c-0.313-2.654,0.875-5.231,2.057-7.627
				c2.653-5.38,5.683-10.973,10.843-14.032c1.342-0.796,2.819-1.413,3.944-2.495c1.289-1.24,2.455-4.938,4.435-4.608
				C232.402,101.055,231.678,102.523,231.237,103.807z"/>
			<path style="fill:#170100;" d="M272.043,107.74c-0.203-0.101-0.438,0.226-0.279,0.387c2.191-0.894,4.533-1.417,6.896-1.541
				c0.359-0.019,0.742-0.023,1.051,0.161c0.733,0.437,0.572,1.527,0.315,2.341c-0.602,1.91-1.204,3.821-1.807,5.731
				c1.694-2.757,2.846-5.847,3.37-9.041c-2.162-0.355-7.958,1.615-9.553,0.371c-1.923-1.5,2.474-3.902,3.887-4.535
				c0.511-0.229,1.077-0.456,1.356-0.941c0.583-1.014-0.676-2.283-1.84-2.168c-1.164,0.115-2.06,1.043-2.822,1.93
				c-1.404,1.632-2.738,3.324-3.997,5.07c0.971-1.867,1.862-3.854,1.914-5.958c0.052-2.104-0.924-4.359-2.831-5.251
				c-2.878-1.346-6.091,0.831-8.518,2.881c-0.833-1.528,0.448-3.436,0.064-5.134c-0.263-1.164-1.392-2.072-2.585-2.08
				c-1.194-0.008-2.334,0.885-2.613,2.045c-0.351-2.883-3.537-4.799-6.431-4.554c-2.894,0.245-5.407,2.131-7.316,4.319
				c-1.056,1.21-3.097,2.525-3.928,1.151c-0.299-0.495-0.22-1.153-0.532-1.64c-0.748-1.164-2.586-0.214-3.357,0.934
				c-1.602,2.385-2.14,5.459-1.442,8.246c-1.16-3.179-5.139-4.139-8.514-4.381c-1.368-0.098-2.975-0.05-3.791,1.052
				c-0.593,0.801-0.549,1.895-0.428,2.885c0.389,3.199,1.299,6.334,2.683,9.245c-1.848-0.642-2.237-3.003-2.766-4.886
				s-2.472-3.95-4.113-2.884c-1.206,0.784-0.998,2.726-0.034,3.794c0.964,1.068,2.392,1.556,3.663,2.231
				c1.27,0.675,2.53,1.761,2.6,3.198c-3.247-2.304-7.36-3.355-11.314-2.891c-0.674,0.079-1.377,0.215-1.9,0.647
				c-1.531,1.262-0.478,3.717,0.657,5.344c1.881,2.695,3.763,5.39,5.644,8.085c-2.04-1.668-4.08-3.336-6.12-5.004
				c-0.679-0.555-1.44-1.14-2.317-1.121c-1.7,0.036-2.461,2.484-1.508,3.892c0.953,1.408,2.822,1.863,4.521,1.898
				c1.7,0.034,3.434-0.235,5.08,0.192c-0.276,0.686-0.552,1.371-0.828,2.057c-3.303-1.043-7.074-0.483-9.931,1.476
				c-1.002,0.687-1.959,1.668-2.003,2.882c-0.034,0.921,0.47,1.774,1.034,2.504c2.35,3.043,6.107,4.953,9.951,5.057
				c-1.157,1.085-3.012,0.918-4.497,0.36c-1.485-0.558-2.885-1.44-4.464-1.591c-1.579-0.152-3.446,0.821-3.488,2.407
				c-0.041,1.534,1.68,2.613,3.213,2.546c1.533-0.067,2.906-0.903,4.279-1.587c1.373-0.685,2.969-1.243,4.415-0.732
				c0.315,0.985-0.919,1.694-1.892,2.045c-3.395,1.222-6.715,3.465-7.878,6.881c-0.38,1.117-0.451,2.502,0.39,3.329
				c0.432,0.425,1.03,0.625,1.605,0.813c3.613,1.176,7.359,2.368,11.137,1.965c-0.762,1.54-2.868,1.758-4.568,1.504
				c-1.7-0.255-3.543-0.747-5.053,0.075c-1.509,0.822-1.611,3.704,0.101,3.854c0.495,0.043,0.975-0.164,1.429-0.368
				c2.756-1.233,5.511-2.466,8.267-3.699c-1.727,1.371-3.49,2.782-4.638,4.665c-1.148,1.882-1.575,4.363-0.503,6.289
				s3.928,2.82,5.619,1.405c2.541-2.126,0.935-7.258,3.871-8.793c0.576,2.466,1.151,4.931,1.727,7.397
				c0.212,0.91,0.426,1.832,0.406,2.766c-0.03,1.409-0.586,2.745-1.045,4.078c-1.224,3.556-1.799,7.335-1.687,11.095
				c-2.652-5.7-5.958-11.095-9.834-16.044c-2.142-2.735-4.47-5.354-6.175-8.381c-1.975-3.505-3.049-7.45-3.75-11.411
				c-1.536-8.678-1.349-17.688,0.826-26.229c1.533-6.018,4.091-11.86,8.109-16.595c2.201-2.593,4.807-4.82,7.57-6.804
				c13.587-9.758,31.626-13.52,47.669-8.779c14.905,4.404,27.466,16.097,32.925,30.648c5.459,14.551,3.689,31.621-4.64,44.742
				c-2.334,3.677-5.134,7.026-8.069,10.234c-0.671,0.734-3.269,4.345-4.31,4.147c-2-0.38-0.818-3.833-2.072-4.706
				c2.091,1.455,5.112-0.861,5.305-3.401c0.193-2.54-1.369-4.842-2.86-6.907c1.428-0.062,2.437,1.308,3.291,2.454
				c0.854,1.146,2.252,2.319,3.554,1.729c1.169-0.53,1.338-2.25,0.646-3.33c-0.692-1.081-1.934-1.658-3.124-2.138
				c-1.879-0.757-4.111-1.385-5.838-0.329c-0.833-0.904,0.303-2.458,1.531-2.507c1.228-0.049,2.299,0.756,3.351,1.393
				c2.773,1.68,7.062,1.987,8.668-0.83c1.36-2.385-0.122-5.411-2.006-7.409c-1.695-1.798-3.737-3.266-5.981-4.301
				c1.173-0.998,3.01-0.531,4.275,0.347c1.265,0.878,2.302,2.113,3.72,2.715c1.418,0.601,3.469,0.187,3.848-1.306
				c0.271-1.067-0.476-2.181-1.448-2.699c-0.971-0.518-2.113-0.579-3.212-0.63c-2.257-0.104-4.514-0.208-6.771-0.312
				c2.255-0.455,4.51-0.91,6.765-1.366c2.32-0.468,5.012-1.241,5.825-3.464c0.632-1.727-0.238-3.731-1.658-4.899
				c-1.42-1.169-3.275-1.656-5.089-1.956c-1.469-0.243-3.376-0.838-3.338-2.327c2.238,0.156,4.476,0.312,6.714,0.468
				c0.86,0.06,1.821,0.088,2.468-0.482c1.213-1.069,0.061-3.288-1.529-3.585c-1.589-0.297-3.131,0.607-4.484,1.492
				c-1.353,0.885-2.852,1.83-4.456,1.625c2.751-2.13,5.245-4.593,7.407-7.319c0.803-1.012,1.603-2.238,1.332-3.501
				c-0.253-1.178-1.363-1.968-2.466-2.454c-3.264-1.438-7.229-1.161-10.261,0.717c-0.546-0.722-0.025-1.83,0.77-2.262
				c0.795-0.432,1.746-0.413,2.647-0.497c1.347-0.127,2.669-0.512,3.873-1.13c0.593-0.304,1.198-0.714,1.406-1.347
				c0.395-1.205-0.997-2.382-2.262-2.293s-2.313,0.972-3.263,1.811c-1.475,1.303-2.95,2.606-4.425,3.908
				c1.711-2.454,2.992-5.208,3.765-8.098c0.491-1.835,0.624-4.143-0.9-5.276c-1.212-0.901-2.914-0.608-4.358-0.165
				c-2.331,0.716-4.574,1.721-6.661,2.983"/>
			<path style="fill:#170100;" d="M281.469,120.192c2.591-0.273,5.227-0.113,7.766,0.474c0.488,0.113,1.035,0.293,1.234,0.753
				c0.18,0.417-0.005,0.896-0.212,1.3c-1.223,2.385-3.313,4.314-5.789,5.341c1.494-1.414,2.895-2.927,4.191-4.526
				c0.42-0.519,0.831-1.291,0.389-1.791c-0.156-0.177-0.386-0.266-0.608-0.344c-2.372-0.837-4.934-1.132-7.434-0.855"/>
			<path style="fill:#170100;" d="M293.916,139.316c0.157,0.13,0.318,0.268,0.407,0.451c0.353,0.728-0.566,1.398-1.32,1.692
				c-1.859,0.724-3.717,1.449-5.576,2.173c-1.221,0.476-2.703,0.922-3.751,0.137c2.034-0.402,4.034-0.978,5.97-1.717
				c1.146-0.437,2.498-1.398,2.101-2.558c-0.123-0.36-0.403-0.642-0.681-0.902c-1.623-1.517-3.538-2.48-5.33-3.682
				C288.374,134.838,291.909,137.656,293.916,139.316z"/>
			<path style="fill:#170100;" d="M284.988,151.833c0.862,1.469,1.725,2.939,2.587,4.408c0.328,0.558,0.649,1.294,0.252,1.805
				c-0.339,0.436-0.991,0.419-1.54,0.354c-2.549-0.299-5.083-0.729-7.588-1.289c0.384,1.359,2.024,1.949,3.436,1.9
				c1.412-0.049,2.805-0.52,4.211-0.385c0.411,0.039,0.826,0.13,1.231,0.052c1.04-0.2,1.571-1.478,1.339-2.511
				c-0.232-1.033-0.996-1.853-1.751-2.596c-1.376-1.354-3.02-2.568-4.291-3.948C283.86,150.096,284.442,150.904,284.988,151.833z"/>
			<path style="fill:#170100;" d="M211.678,161.165c0.008,0.9,0.434,2.003,1.333,2.043c0.424,0.019,0.811-0.219,1.167-0.449
				c0.921-0.592,1.841-1.184,2.762-1.775c-0.295,1.047-0.601,2.117-1.23,3.005c-0.629,0.887-1.656,1.572-2.741,1.493
				c-1.088-0.079-2.019-0.925-2.426-1.937c-0.407-1.012-0.36-2.156-0.12-3.22c0.337-1.492,1.114-3.133,2.589-3.647
				C212.837,158.061,211.664,159.465,211.678,161.165z"/>
			<path style="fill:#170100;" d="M205.613,148.883c1.148,0.422,2.414,0.311,3.632,0.193c1.3-0.125,2.6-0.251,3.901-0.376
				c-1.609,1.538-4.192,0.854-6.409,0.664c-1.275-0.109-2.755-0.104-3.558-1.101c-2.594-3.221,1.728-5.919,4.344-6.167
				C205.433,143.507,201.124,147.241,205.613,148.883z"/>
			<path style="fill:#170100;" d="M203.604,127.025c-0.811,0.498-1.636,1.358-1.362,2.27c0.15,0.497,0.592,0.841,1.008,1.151
				c2.247,1.669,4.721,3.415,7.519,3.361c-0.247,0.917-1.554,0.912-2.456,0.613c-2.982-0.989-5.616-2.998-7.357-5.613
				c-0.055-0.082-0.11-0.171-0.108-0.27c0.003-0.134,0.109-0.239,0.21-0.327c2.415-2.111,5.195-2.247,8.182-2.316
				C207.91,124.949,204.998,126.17,203.604,127.025z"/>
			<path style="fill:#170100;" d="M209.789,112.161c-0.405-0.544-0.828-1.141-0.822-1.819c1.545,0.052,3.082,0.24,4.617,0.428
				c1.886,0.231,3.996,0.59,5.095,2.139c1.034-0.193,1.157-1.798,0.396-2.524c-0.761-0.725-1.915-0.798-2.966-0.828
				c-2.604-0.076-5.214-0.148-7.812,0.04c-0.265,0.019-0.545,0.046-0.759,0.204c-0.555,0.41-0.27,1.283,0.078,1.879
				c1.211,2.074,3.224,6.072,5.572,6.792C214.12,116.481,210.94,113.706,209.789,112.161z"/>
			<path style="fill:#170100;" d="M220.237,102.077c-0.316-0.821-0.638-1.673-0.588-2.551c0.05-0.878,0.577-1.794,1.432-2.005
				c0.583-0.144,1.192,0.058,1.751,0.278c2.747,1.082,5.289,2.679,7.457,4.683c-0.35,0.64-0.699,1.28-1.049,1.92
				c-1.323-2.598-3.886-4.529-6.748-5.084c-0.441-0.085-0.961-0.116-1.273,0.206c-0.27,0.279-0.276,0.717-0.224,1.102
				c0.331,2.448,2.911,4.835,2.436,7.263C221.479,107.15,220.926,103.866,220.237,102.077z"/>
			<path d="M173.091,322.572c1.147,1.597,3.013,2.527,4.894,3.098c4.464,1.356,9.243,1.01,13.882,1.513
				c7.413,0.804,14.397,3.767,21.243,6.723c6.766,2.922,13.53,5.874,20.023,9.36c2.284,1.226,4.898,2.557,7.346,1.704
				c-1.044-0.58-2.111-1.118-3.178-1.656c-5.12-2.581-10.239-5.161-15.359-7.741c-8.033-4.049-16.108-8.115-24.677-10.854
				c-2.048-0.654-4.135-1.235-6.277-1.418c-1.404-0.12-2.816-0.069-4.225-0.097c-3.484-0.069-6.958-0.629-10.288-1.656
				c-1.334-0.412-2.315-2.261-3.381-2.455C171.195,318.746,172.516,321.771,173.091,322.572z"/>
			<path d="M231.609,353.847c-0.945,0.78-1.99,1.629-2.212,2.834c1.535,0.548,3.201-0.297,4.53-1.241
				c1.329-0.945,2.686-2.065,4.315-2.14c0.92-0.042,1.816,0.263,2.689,0.559c12.741,4.324,25.831,7.623,39.1,9.852
				c3.078,0.517,6.298,0.968,9.272,0.02c-0.717-1.435-2.621-1.676-4.222-1.785c-8.58-0.58-17.057-2.658-24.932-6.111
				c-6.768-2.967-13.05-6.918-19.48-10.566C239.546,344.638,233.027,352.676,231.609,353.847z"/>
			<path d="M150.89,340.866c-0.79-2.605-1.211-5.778,0.666-7.749c0.47-0.494,1.076-0.878,1.748-0.997
				c1.46-0.26,2.832,0.734,3.898,1.767c5.009,4.855,7.719,11.674,12.596,16.661c5.684,5.812,13.748,8.587,21.645,10.519
				c2.921,0.714,5.894,1.343,8.901,1.306c6.124-0.075,11.939-2.895,18.057-3.172c0.759-0.034,1.803,0.265,1.707,1.019
				c-0.039,0.305-0.277,0.543-0.513,0.741c-2.492,2.086-5.983,2.349-9.223,2.611c-5.768,0.467-11.511,1.228-17.202,2.279
				c-4.526,0.836-9.056,1.86-13.658,1.864C165.468,367.725,154.647,353.25,150.89,340.866z"/>
			<path d="M220.859,347.911c-2.695,2.032-5.82,3.406-8.935,4.707c-2.648,1.107-5.35,2.185-8.198,2.543
				c-1.72,0.216-3.462,0.165-5.193,0.253c-0.23,0.012-0.479,0.034-0.652,0.187c-0.523,0.465,0.247,1.247,0.92,1.434
				c2.918,0.808,6.012-0.044,8.903-0.942c8.525-2.646,16.918-5.721,25.134-9.209c0.669-0.284,1.356-0.584,1.858-1.108
				c0.503-0.525,0.778-1.337,0.472-1.995c-0.181-0.389-0.532-0.669-0.881-0.921c-1.316-0.947-2.775-1.695-4.31-2.216
				c-0.655-0.222-1.653-0.672-2.354-0.61c-1.295,0.114-0.658-0.094-1.356,0.96C224.531,343.618,223.497,345.922,220.859,347.911z"/>
			<path d="M213.096,342.826c-6.372,3.933-13.656,6.379-21.11,7.089c0.14,1.352,1.836,1.87,3.195,1.91
				c3.299,0.098,6.562-0.706,9.694-1.747c6.764-2.248,13.147-5.638,18.797-9.984c0.243-0.187,0.502-0.404,0.55-0.706
				c0.04-0.254-0.081-0.503-0.215-0.722c-1.197-1.956-3.384-2.989-5.014-1.258C217.057,339.465,215.574,341.297,213.096,342.826z"/>
			<path d="M207.892,340.796c-2.035,0.975-4.396,1.51-5.91,3.184c-0.291,0.322-0.485,0.934-0.085,1.101
				c0.112,0.047,0.24,0.035,0.36,0.015c0.733-0.119,1.402-0.477,2.051-0.837c2.237-1.24,4.426-2.565,6.562-3.971
				c1.258-0.828,6.047-3.211,6.141-4.823c0.19-3.257-2.915,0.308-3.383,0.857C212.07,338.145,210.056,339.758,207.892,340.796z"/>
			<path d="M277.781,355.348c-5.585-1.954-11.098-4.423-15.577-8.29c-2.497-2.155-4.638-4.722-6.31-7.565
				c-1.079-1.835-1.984-3.878-1.896-6.005c0.026-0.633,0.296-1.414,0.927-1.463c0.549-0.042,0.935,0.507,1.213,0.983
				c5.063,8.661,13.856,15.053,23.656,17.197c3.289,0.719,6.662,0.98,9.97,1.609c7.308,1.391,14.226,4.568,21.608,5.483
				c3.316,0.411,6.665,0.365,9.993,0.622c2.533,0.195,6.396,0.304,8.451,1.941c-1.19,0.997-4.196,0.77-5.752,0.959
				c-3.798,0.462-7.64,0.598-11.464,0.568c-7.565-0.058-15.123-0.913-22.51-2.544C285.922,357.923,281.809,356.757,277.781,355.348z
				"/>
			<path d="M316.986,356.748c-7.578-1.037-14.629-4.382-22.025-6.333c-7.579-1.999-16.041-2.784-21.734-8.172
				c-1.031-0.976-1.966-2.134-2.298-3.514c-0.332-1.38,0.078-3.013,1.267-3.789c1.315-0.858,3.071-0.445,4.511,0.181
				c3.872,1.685,7.031,4.641,10.625,6.857c7.58,4.673,16.728,5.869,25.566,6.959c7.467,0.921,14.935,1.842,22.402,2.763
				c1.698,0.21,4.638,1.011,4.103,3.316c-0.515,2.218-3.5,2.35-5.252,2.079C328.505,356.222,322.729,357.534,316.986,356.748z"/>
			<path d="M314.389,345.739c-3.751-0.514-7.535-1.036-11.097-2.322c-1.979-0.714-3.919-1.693-5.343-3.242
				c-0.301-0.327-0.589-0.71-0.609-1.154c-0.028-0.621,0.484-1.145,1.041-1.423c1.321-0.659,2.898-0.368,4.334-0.024
				c6.316,1.513,12.432,3.77,18.716,5.414c3.723,0.974,7.523,1.731,11.37,1.976c2.043,0.13,4.096,0.118,6.134-0.089
				c1.216-0.124,4.34-1.149,5.354-0.108c1.619,1.662-2.879,2.712-4.022,2.879c-3.854,0.561-8.093,0.07-11.954-0.251
				C323.653,347.008,319.019,346.374,314.389,345.739z"/>
			<path d="M288.921,299.108c-1.992,5.912-7.05,10.201-10.352,15.495c0.425,1.783,2.185,2.873,4.017,2.863
				c1.852-0.011,3.71-0.022,5.546-0.26c3.062-0.397,6.039-1.431,8.688-3.017c0.81-0.485,1.619-1.033,2.55-1.192
				c2.201-0.376,4.104,1.474,6.238,2.132c1.571,0.484,3.26,0.308,4.895,0.483c3.416,0.365,6.46,2.235,9.373,4.058
				c2.634-5.8,1.468-12.533,0.253-18.786c-0.499-2.569-1.056-5.262-2.751-7.256c-4.364,3.601-10.339,4.392-15.977,4.855
				C297.218,298.826,293.115,298.97,288.921,299.108z"/>
			<path d="M226.08,290.334c-0.114,0.521,0.024,1.06,0.174,1.572c0.292,0.993,0.689,2.045,1.557,2.61
				c1.22,0.794,2.837,0.319,4.186-0.228c2.028-0.823,4.066-1.8,5.54-3.419c1.119-1.228,1.861-2.795,2.104-4.438
				c0.028-0.188,0.049-0.38,0.01-0.565c-0.103-0.5-0.624-0.825-1.133-0.873c-0.508-0.048-1.01,0.119-1.495,0.278
				c-2.678,0.879-4.96,0.993-7.713,1.089c-1.421,0.05-1.048-0.146-1.799,0.964C227.061,287.988,226.25,289.559,226.08,290.334z"/>
			<path d="M199.885,300.839c-0.251,0.053-0.502,0.104-0.75,0.154c0.662-3.6,0.454-7.357-0.602-10.862
				c-0.382-1.267-0.876-2.615-0.472-3.876c0.237-0.739,0.757-1.347,1.265-1.933c4.802-5.545,9.604-11.091,14.406-16.636
				c2.302-2.658,4.611-5.326,6.543-8.265c1.17-1.78,6.341-13.34,8.628-12.867c0.986,0.204-0.034,15.523,0,17.548
				c0.038,2.279,0.119,4.568-0.165,6.83c-0.673,5.35-3.331,10.217-5.939,14.936c-0.514,0.931-1.155,1.958-2.199,2.164
				c-0.509,0.1-1.033-0.019-1.552-0.031c-1.155-0.029-2.311,0.507-3.037,1.406c-0.235,0.291-0.443,0.63-0.782,0.786
				c-0.368,0.17-0.796,0.081-1.201,0.073c-1.661-0.033-3.151,1.605-2.963,3.256c-0.826-0.198-1.673,0.327-2.193,0.999
				c-0.52,0.672-0.819,1.487-1.27,2.207c-2.068,3.298-6.656,3.9-10.108,4.833c-4.945,1.338-9.89,2.678-14.834,4.018
				c-0.867,0.235-1.945,0.776-1.79,1.661c7.495-0.508,14.533-3.977,22.016-4.636c1.081-0.095,2.335-0.062,3.029,0.772
				c-1.666,1.586-3.735,2.676-5.554,4.084c-1.819,1.408-3.466,3.307-3.709,5.594c3.808-0.707,6.525-3.946,9.237-6.711
				c2.712-2.765,6.392-5.407,10.145-4.449c0.697,0.178,1.458,0.6,1.54,1.315c0.074,0.651-0.45,1.198-0.919,1.655
				c-3.385,3.304-6.024,7.369-7.662,11.807c4.652-2.203,6.649-7.617,9.907-11.602c1.024-1.253,2.611-2.482,4.114-1.884
				c1.995,0.793,1.666,3.688,0.976,5.721c-0.774,2.283-1.548,4.566-2.322,6.849c1.988-0.807,2.623-3.227,3.509-5.181
				c1.299-2.864,3.659-5.232,6.518-6.541c5.523-2.528,12.13-1.02,17.89-2.945c2.205-0.737,4.259-1.971,6.555-2.335
				c1.72-0.273,3.475-0.04,5.201,0.193c5.269,0.711,10.538,1.422,15.808,2.134c4.123,0.557,8.393,1.103,12.384-0.072
				c0.257-0.076,0.522-0.165,0.713-0.353c0.48-0.475,0.217-1.357-0.338-1.741c-0.556-0.384-1.274-0.411-1.949-0.431
				c-9.689-0.282-19.344-1.724-28.693-4.285c-1.264-0.346-2.567-0.716-3.865-0.534c-1.995,0.281-3.554,1.785-5.206,2.937
				c-3.184,2.22-7.028,3.254-10.809,4.129c-2.492,0.577-5.016,1.104-7.574,1.136c-3.518,0.045-6.973-0.844-10.379-1.728
				c-4.053-1.051-8.107-2.102-12.161-3.154c-0.743-0.193-1.511-0.387-2.27-0.272c-0.615,0.093-1.18,0.383-1.733,0.669
				c-2.076,1.074-4.151,2.148-6.227,3.223"/>
			<path d="M203.628,301.437c1.486-0.404,2.917-1.209,3.773-2.489c1.07-1.598,0.538-3.553-1.528-3.569
				c-1.633-0.013-3.946,1.333-5.384,2.091c-1.206,0.634-2.309,1.323-2.314,2.838C198.165,302.93,201.854,301.919,203.628,301.437z"
				/>
			<path d="M230.304,242.506c0.629-1.244,1.603-2.273,2.563-3.282c4.218-4.436,8.437-8.871,12.655-13.307
				c3.805-4.001,7.658-8.068,10.244-12.946c0.742-1.4,1.502-2.982,2.973-3.571c0.366,2.028-0.737,4.006-1.853,5.738
				c-3.872,6.01-8.403,11.564-12.923,17.104c-4.099,5.024-8.199,10.048-12.298,15.072c-1.017,1.246-2.264,2.843-3.925,3.149
				c-0.335-1.425,0.422-2.245,0.958-3.435C229.356,245.564,229.578,243.943,230.304,242.506z"/>
			<path d="M243.204,245.982c1.769-2.165,3.347-4.479,5.08-6.673c4.586-5.805,10.341-10.916,13.132-17.766
				c0.653-1.602,1.361-3.504,3.026-3.974c0.592,0.746,0.3,1.834-0.037,2.725c-6.449,17.064-19.406,30.718-29.176,46.124
				c-4.085,6.441-7.658,13.261-12.595,19.076c-0.192,0.227-0.408,0.465-0.699,0.525c-0.677,0.141-1.107-0.706-1.223-1.388
				c-0.401-2.357-0.084-4.775,0.344-7.128c0.701-3.855,1.698-7.657,2.978-11.361c0.926-2.68,1.777-6.156,4.165-7.918
				c2.437-1.798,5.242-3.058,7.647-4.976C238.547,251.096,241.019,248.657,243.204,245.982z"/>
			<path d="M240.576,270.804c4.048-5.012,8.168-10.151,10.329-16.221c0.716-2.013,1.271-4.211,2.823-5.678
				c0.157-0.148,0.337-0.294,0.552-0.317c0.684-0.074,0.83,0.946,0.666,1.614c-1.981,8.036-7.739,14.569-11.021,22.167
				c-0.551,1.276-1.053,2.616-1.999,3.635c-1.694,1.826-5.428,2.992-7.779,3.242C234.55,276.576,238.875,272.91,240.576,270.804z"/>
			<path d="M267.424,229.517c0.124-0.401,0.358-0.887,0.778-0.867c0.484,0.023,0.625,0.669,0.602,1.152
				c-0.123,2.572-0.904,5.061-1.648,7.527c-3.886,12.875-6.91,26.009-9.045,39.286c-0.217,1.352-0.863,3.079-2.229,2.977
				c-0.58-0.043-1.063-0.439-1.537-0.777c-1.338-0.954-3.105-0.932-4.362-1.72c-0.982-0.616-0.645,0.002-0.494-1.282
				c0.1-0.847,0.851-1.976,1.189-2.764c1.502-3.498,2.997-7,4.465-10.513c2.909-6.96,5.717-13.964,8.272-21.062
				C264.839,237.518,266.185,233.535,267.424,229.517z"/>
			<path d="M266.633,259.551c3.332-11.256,6.677-22.567,8.227-34.203c0.261-1.962,0.52-4.051,1.778-5.579
				c1.507,2.203,1.05,5.146,0.553,7.768c-1.977,10.425-3.636,20.933-4.229,31.527c-0.136,2.423-0.217,4.863-0.723,7.237
				c-0.671,3.148-2.068,6.088-3.453,8.993c-0.623,1.307-1.268,2.644-2.315,3.644c-1.067,1.018-3.906,2.143-5.119,0.62
				c-1.013-1.271,0.7-4.53,1.119-5.947C263.858,268.924,265.245,264.238,266.633,259.551z"/>
			<path d="M280.743,235.934c0.092-0.766,0.404-1.745,1.175-1.748c0.85-0.003,1.103,1.147,1.084,1.996
				c-0.187,8.245-0.373,16.489-0.56,24.734c-0.084,3.693-0.167,7.385-0.251,11.077c-0.046,2.008-0.249,4.327-1.901,5.471
				c-1.98,1.371-4.855,0.624-7.069,1.373c-0.611-2.613,1.479-7.394,2.057-10.1c0.777-3.637,1.498-7.285,2.163-10.944
				C278.762,250.542,279.863,243.251,280.743,235.934z"/>
			<path d="M260.931,276.145c-2.786-0.408-5.509-1.171-8.284-1.653c-3.103-0.539-6.26-0.724-9.409-0.678
				c-7.498,0.108-15.596,1.868-20.435,7.597c-0.327,0.387-0.62,1.019-0.227,1.339c0.188,0.153,0.454,0.148,0.695,0.132
				c9.924-0.643,19.513-6.361,29.278-4.477c2.028,0.391,3.979,1.104,5.986,1.593c9.588,2.337,19.612-0.545,28.939-3.769
				c0.961-0.332,8.855-2.524,7.229-3.925c-0.625-0.539-4.737,0.65-5.62,0.807c-1.873,0.333-3.738,0.711-5.603,1.086
				C276.083,275.684,268.497,277.251,260.931,276.145z"/>
			<path d="M288.758,273.014c-0.99-1.656,1.228-6.807,1.533-8.592c2.253-13.172,2.323-26.715,0.206-39.909
				c-0.238-1.485-0.505-2.988-0.364-4.485c0.046-0.488,0.168-1.026,0.575-1.3c0.814-0.548,1.801,0.395,2.295,1.243
				c5.435,9.333,6.184,20.553,8.829,31.024c1.146,4.536,2.679,9.086,2.464,13.76c-0.067,1.465-0.335,2.988-1.222,4.156
				c-0.874,1.151-2.237,1.814-3.579,2.348c-4.03,1.604-7.754,2.791-12.153,2.414"/>
			<path d="M312.489,257.631c1.893-1.513,3.96-2.941,6.336-3.42c0.47-0.095,0.983-0.145,1.408,0.077
				c0.681,0.356,0.858,1.31,0.571,2.023c-0.287,0.713-0.911,1.229-1.538,1.674c-4.927,3.503-11.72,4.916-14.755,10.144
				c1.635,1.012,3.565-0.567,5.284-1.43c1.98-0.995,4.341-1.026,6.49-0.486c2.149,0.539,4.126,1.607,6.027,2.746
				c0.997,0.597,2.003,1.237,2.71,2.159c0.707,0.923,1.066,2.195,0.625,3.271c-0.235,0.573-0.727,1.074-1.34,1.167
				c-0.483,0.073-0.964-0.109-1.415-0.297c-4.805-1.996-9.411-5.011-14.612-5.166c-0.93-0.028-2.219,0.554-1.852,1.409
				c0.109,0.254,0.349,0.423,0.576,0.581c4.886,3.402,8.97,7.948,11.83,13.17c0.945,1.725,1.683,4.074,0.309,5.481
				c-0.173,0.177-0.387,0.334-0.634,0.36c-0.394,0.041-0.737-0.252-1.012-0.537c-4.332-4.482-5.363-11.419-9.75-15.848
				c-1.581-1.596-3.447-2.605-5.519-3.408c-2.57-0.996-0.871-1.943,0.549-3.779C305.616,263.856,308.868,260.525,312.489,257.631z"
				/>
			<path d="M303.901,267.016c2.502-9.378,9.697-16.702,14.066-25.369c1.071-2.125,1.989-4.411,1.97-6.79
				c-6.479,5.823-8.769,15.149-14.897,21.34c2.133-11.623,7.889-22.196,8.44-34c0.034-0.734-0.042-1.624-0.696-1.959
				c-4.449,8.386-4.969,18.698-10.726,26.245c1.536-10.229,1.552-20.684,0.046-30.917c-0.515-3.501-1.615-7.508-4.875-8.882
				c1.097,8.124,2.196,16.274,2.249,24.472c0.039,5.902-0.465,11.802-0.286,17.701s1.081,11.894,3.753,17.157
				C303.16,266.438,303.674,266.597,303.901,267.016z"/>
			<path d="M332.865,321.83c3.428,0.958,6.88,1.926,10.072,3.502c0.155-1.055-0.415-2.071-1.003-2.961
				c-2.176-3.296-4.897-6.232-8.018-8.652c-2.189-1.698-3.598-3.881-5.082-6.22c-1.382-2.177-2.802-4.145-3.495-6.629
				c-0.886-3.173-2.327-6.19-4.239-8.872c-2.151,4.034-0.733,8.925-0.171,13.462c0.635,5.131-0.499,10.065-0.367,15.137
				c1.71,0.422,4.155-0.382,6.082-0.154C328.755,320.693,330.82,321.259,332.865,321.83z"/>
			<path d="M190.842,230.515c1.671-5.206,3.371-10.572,6.857-14.785c0.21-0.254,0.451-0.518,0.775-0.582
				c0.312-0.061,0.626,0.08,0.901,0.239c0.96,0.555,1.748,1.364,2.679,1.965c0.932,0.601,2.122,0.984,3.146,0.562
				c-0.296,1.868-0.591,3.737-0.887,5.605c-0.949,5.998-1.9,12.013-2.122,18.082c-0.112,3.067,1.016,6.712,0.474,9.733
				c-0.542,3.021-2.825,5.48-5.118,7.521c-1.809,1.611-4.132,2.5-6.399,3.357c-2.188,0.826-4.375,1.652-6.563,2.479
				c-1.858,0.702-4.24,2.094-6.179,2.165c0.516-2.983,2.138-6.101,3.163-8.974c1.094-3.066,2.171-6.139,3.232-9.217
				C186.86,242.694,189.31,236.642,190.842,230.515z"/>
			<path d="M218.809,259.616c-1.306,0.335-2.972-0.37-3.139-1.708c-0.067-0.532,0.107-1.074,0.029-1.604
				c-0.078-0.53-0.612-1.07-1.096-0.841c-0.262,0.124-0.39,0.417-0.502,0.684c-2.705,6.459-8.319,11.164-13.738,15.6
				c-4.066,3.329-8.223,6.707-13.121,8.611c-1.647,0.64-3.374,1.107-5.137,1.218c-5.05,0.317-9.795-2.272-14.037-5.029
				c0.58,5.33,2.287,10.535,4.977,15.173c0.76,1.31,1.631,2.611,2.888,3.457c2.192,1.475,5.166,1.267,7.598,0.235
				c2.432-1.032,4.479-2.774,6.61-4.337c8.318-6.103,18.475-9.845,25.418-17.477c3.628-3.988,6.207-8.922,7.41-14.177
				c0.104-0.454,0.196-0.938,0.038-1.377C222.387,256.33,219.855,259.348,218.809,259.616z"/>
			<path d="M208.923,232.79c-0.208-0.988-0.07-2.012,0.078-3.011c0.785-5.279,1.85-10.516,3.191-15.682
				c0.368-1.417,1.025-3.598,2.618-4c0.556,1.254-0.839,3.331-1.232,4.579c-0.63,2.003-1.054,4.064-1.458,6.122
				C211.323,224.857,210.668,229.003,208.923,232.79z"/>
			<path d="M233.507,303.779c1.975,0.789,1.912,3.689,0.905,5.563c-1.006,1.874-2.628,3.571-2.701,5.696
				c-0.054,1.559,0.756,3.002,1.54,4.35c1.246,2.143,2.492,4.285,3.739,6.428c0.62-1.828,1.239-3.656,1.859-5.484
				c1.127-3.325,2.286-6.712,4.381-9.529c1.94-2.609,4.652-4.636,7.704-5.759c0.158,2.227-1.156,4.254-2.318,6.16
				c-2.717,4.455-4.883,9.246-6.432,14.229c2.04,0.195,4.058,0.624,6.001,1.277c3.588-4.977,6.375-10.529,8.221-16.38
				c0.949-3.006,2.161-6.613,5.23-7.331c-1.38,7.977-4.106,15.719-8.027,22.801c2.114-0.787,4.425,1.371,6.598,0.765
				c1.507-0.421,2.355-2.023,2.737-3.541s0.492-3.147,1.299-4.487c1.34-2.224,4.204-3.002,6.8-3.065s5.238,0.388,7.765-0.209
				c0.571-0.135,1.129-0.322,1.668-0.554c4.753-2.049,7.292-7.15,9.443-11.857c0.379-0.83,0.751-1.836,0.263-2.607
				c-0.435-0.687-1.35-0.851-2.159-0.934c-3.7-0.38-7.435-0.42-11.143-0.12c-2.97,0.24-6.057,0.684-8.854-0.344
				c-1.367-0.502-2.591-1.335-3.942-1.879c-4.217-1.7-9.017-0.396-13.229,1.315c-4.213,1.711-8.441,3.859-12.988,3.829
				c-1.776-0.012-3.579-0.359-5.312,0.034c-1.295,0.294-2.642,1.172-2.958,2.461C230.799,304.22,232.126,303.227,233.507,303.779z"
				/>
		</g>
	</g>
</g>

</svg>
